{
    "asset" : {
        "generator" : "Khronos glTF Blender I/O v1.4.40",
        "version" : "2.0"
    },
    "scene" : 0,
    "scenes" : [
        {
            "name" : "Scene",
            "nodes" : [
                0,
                1
            ]
        }
    ],
    "nodes" : [
        {
            "mesh" : 0,
            "name" : "Cube",
            "translation" : [
                -0.6169688701629639,
                -0.06120266765356064,
                0.6348037719726562
            ]
        },
        {
            "mesh" : 1,
            "name" : "Head",
            "scale" : [
                0.35866132378578186,
                0.35866132378578186,
                0.35866132378578186
            ],
            "translation" : [
                -0.6187918782234192,
                1.358150601387024,
                1.001952886581421
            ]
        }
    ],
    "materials" : [
        {
            "doubleSided" : true,
            "name" : "MaterialShorts",
            "pbrMetallicRoughness" : {
                "baseColorTexture" : {
                    "index" : 0,
                    "texCoord" : 0
                },
                "metallicFactor" : 0,
                "roughnessFactor" : 0.5
            }
        },
        {
            "doubleSided" : true,
            "name" : "Head01UVSMaterial",
            "pbrMetallicRoughness" : {
                "baseColorTexture" : {
                    "index" : 1,
                    "texCoord" : 0
                },
                "metallicFactor" : 0,
                "roughnessFactor" : 0.5
            }
        }
    ],
    "meshes" : [
        {
            "name" : "Cube.006",
            "primitives" : [
                {
                    "attributes" : {
                        "POSITION" : 0,
                        "NORMAL" : 1,
                        "TEXCOORD_0" : 2,
                        "COLOR_0" : 3
                    },
                    "indices" : 4,
                    "material" : 0
                }
            ]
        },
        {
            "name" : "Cube.013",
            "primitives" : [
                {
                    "attributes" : {
                        "POSITION" : 5,
                        "NORMAL" : 6,
                        "TEXCOORD_0" : 7,
                        "COLOR_0" : 8
                    },
                    "indices" : 9,
                    "material" : 1
                }
            ]
        }
    ],
    "textures" : [
        {
            "sampler" : 0,
            "source" : 0
        },
        {
            "sampler" : 0,
            "source" : 1
        }
    ],
    "images" : [
        {
            "bufferView" : 5,
            "mimeType" : "image/png",
            "name" : "Girld02Shorts06"
        },
        {
            "bufferView" : 11,
            "mimeType" : "image/png",
            "name" : "HeadGirl_01_uvs_02"
        }
    ],
    "accessors" : [
        {
            "bufferView" : 0,
            "componentType" : 5126,
            "count" : 16891,
            "max" : [
                2.5433144569396973,
                1.057968020439148,
                0.8620638251304626
            ],
            "min" : [
                -2.5433144569396973,
                -3.59067702293396,
                0.1721423715353012
            ],
            "type" : "VEC3"
        },
        {
            "bufferView" : 1,
            "componentType" : 5126,
            "count" : 16891,
            "type" : "VEC3"
        },
        {
            "bufferView" : 2,
            "componentType" : 5126,
            "count" : 16891,
            "type" : "VEC2"
        },
        {
            "bufferView" : 3,
            "componentType" : 5123,
            "count" : 16891,
            "normalized" : true,
            "type" : "VEC4"
        },
        {
            "bufferView" : 4,
            "componentType" : 5123,
            "count" : 94752,
            "type" : "SCALAR"
        },
        {
            "bufferView" : 6,
            "componentType" : 5126,
            "count" : 4550,
            "max" : [
                0.587609052658081,
                0.8708391189575195,
                1.0336065292358398
            ],
            "min" : [
                -0.5876091122627258,
                -0.803682804107666,
                -0.611659049987793
            ],
            "type" : "VEC3"
        },
        {
            "bufferView" : 7,
            "componentType" : 5126,
            "count" : 4550,
            "type" : "VEC3"
        },
        {
            "bufferView" : 8,
            "componentType" : 5126,
            "count" : 4550,
            "type" : "VEC2"
        },
        {
            "bufferView" : 9,
            "componentType" : 5123,
            "count" : 4550,
            "normalized" : true,
            "type" : "VEC4"
        },
        {
            "bufferView" : 10,
            "componentType" : 5123,
            "count" : 24624,
            "type" : "SCALAR"
        }
    ],
    "bufferViews" : [
        {
            "buffer" : 0,
            "byteLength" : 202692,
            "byteOffset" : 0
        },
        {
            "buffer" : 0,
            "byteLength" : 202692,
            "byteOffset" : 202692
        },
        {
            "buffer" : 0,
            "byteLength" : 135128,
            "byteOffset" : 405384
        },
        {
            "buffer" : 0,
            "byteLength" : 135128,
            "byteOffset" : 540512
        },
        {
            "buffer" : 0,
            "byteLength" : 189504,
            "byteOffset" : 675640
        },
        {
            "buffer" : 0,
            "byteLength" : 27152,
            "byteOffset" : 865144
        },
        {
            "buffer" : 0,
            "byteLength" : 54600,
            "byteOffset" : 892296
        },
        {
            "buffer" : 0,
            "byteLength" : 54600,
            "byteOffset" : 946896
        },
        {
            "buffer" : 0,
            "byteLength" : 36400,
            "byteOffset" : 1001496
        },
        {
            "buffer" : 0,
            "byteLength" : 36400,
            "byteOffset" : 1037896
        },
        {
            "buffer" : 0,
            "byteLength" : 49248,
            "byteOffset" : 1074296
        },
        {
            "buffer" : 0,
            "byteLength" : 74168,
            "byteOffset" : 1123544
        }
    ],
    "samplers" : [
        {
            "magFilter" : 9729,
            "minFilter" : 9986
        }
    ],
    "buffers" : [
        {
            "byteLength" : 1197712,
            "uri" : "data:application/octet-stream;base64,"
        }
    ]
}
